<?xml version="1.0" standalone="no"?>
<!DOCTYPE svg PUBLIC "-//W3C//DTD SVG 1.1//EN" "http://www.w3.org/Graphics/SVG/1.1/DTD/svg11.dtd" >
<svg xmlns="http://www.w3.org/2000/svg">
<metadata>
Created by FontForge 20120731 at Fri Jun 17 23:18:27 2016
 By admin
</metadata>
<defs>
<font id="iconfont" horiz-adv-x="1024" >
  <font-face 
    font-family="iconfont"
    font-weight="500"
    font-stretch="normal"
    units-per-em="1024"
    panose-1="2 0 6 3 0 0 0 0 0 0"
    ascent="896"
    descent="-128"
    x-height="792"
    bbox="-0.069767 -212.808 1116 896.07"
    underline-thickness="50"
    underline-position="-100"
    unicode-range="U+0078-E612"
  />
<missing-glyph horiz-adv-x="374" 
d="M34 0v682h272v-682h-272zM68 34h204v614h-204v-614z" />
    <glyph glyph-name=".notdef" horiz-adv-x="374" 
d="M34 0v682h272v-682h-272zM68 34h204v614h-204v-614z" />
    <glyph glyph-name=".null" horiz-adv-x="0" 
 />
    <glyph glyph-name="nonmarkingreturn" horiz-adv-x="341" 
 />
    <glyph glyph-name="x" unicode="x" horiz-adv-x="1001" 
d="M281 543q-27 -1 -53 -1h-83q-18 0 -36.5 -6t-32.5 -18.5t-23 -32t-9 -45.5v-76h912v41q0 16 -0.5 30t-0.5 18q0 13 -5 29t-17 29.5t-31.5 22.5t-49.5 9h-133v-97h-438v97zM955 310v-52q0 -23 0.5 -52t0.5 -58t-10.5 -47.5t-26 -30t-33 -16t-31.5 -4.5q-14 -1 -29.5 -0.5
t-29.5 0.5h-32l-45 128h-439l-44 -128h-29h-34q-20 0 -45 1q-25 0 -41 9.5t-25.5 23t-13.5 29.5t-4 30v167h911zM163 247q-12 0 -21 -8.5t-9 -21.5t9 -21.5t21 -8.5q13 0 22 8.5t9 21.5t-9 21.5t-22 8.5zM316 123q-8 -26 -14 -48q-5 -19 -10.5 -37t-7.5 -25t-3 -15t1 -14.5
t9.5 -10.5t21.5 -4h37h67h81h80h64h36q23 0 34 12t2 38q-5 13 -9.5 30.5t-9.5 34.5q-5 19 -11 39h-368zM336 498v228q0 11 2.5 23t10 21.5t20.5 15.5t34 6h188q31 0 51.5 -14.5t20.5 -52.5v-227h-327z" />
    <glyph glyph-name="uniE600" unicode="&#xe600;" horiz-adv-x="1000" 
d="M668 471q14 0 30 -2q-20 94 -109 155.5t-203 61.5q-128 0 -218.5 -76.5t-90.5 -185.5q0 -123 124 -209l-31 -93l108 54q78 -15 108 -15q13 0 29 1q-9 33 -9 65q0 101 76 172.5t186 71.5zM502 555q18 0 28.5 -10.5t10.5 -28t-10.5 -28t-28.5 -10.5t-32 11t-14 27.5
t14 27.5t32 11zM286 478q-18 0 -32.5 11t-14.5 27.5t14.5 27.5t32.5 11q17 0 27.5 -10.5t10.5 -28t-10.5 -28t-27.5 -10.5zM950 230q0 92 -78.5 158.5t-183.5 66.5q-110 0 -186.5 -66t-76.5 -159t76.5 -158.5t186.5 -65.5q31 0 92 16l85 -47l-23 77q108 82 108 178zM603 269
q-12 0 -21.5 9.5t-9.5 21.5t9.5 21.5t21.5 9.5q16 0 27 -9.5t11 -21.5t-11 -21.5t-27 -9.5zM773 269q-12 0 -21.5 9.5t-9.5 21.5t9.5 21.5t21.5 9.5q16 0 27 -9.5t11 -21.5t-11 -21.5t-27 -9.5z" />
    <glyph glyph-name="uniE601" unicode="&#xe601;" horiz-adv-x="1000" 
d="M919 252l-397 396l-7 7q-9 10 -15 11v0h-1q-3 -1 -6.5 -4t-5.5 -6l-3 -2l-6 -6l-396 -395q-53 14 -78 62l423 424q31 31 75 31t75 -31l423 -424q-26 -50 -81 -63zM865 215v-324q0 -27 -19.5 -45.5t-46.5 -18.5h-165v3q1 2 1 3v254q0 27 -18 46.5t-43 19.5h-140
q-25 0 -43 -19.5t-18 -46.5v-254q0 -1 1 -6h-167q-27 0 -46.5 18.5t-19.5 45.5v331l359 386z" />
    <glyph glyph-name="uniE602" unicode="&#xe602;" 
d="M743 310q-17 4 -21.5 10.5t-1.5 11.5l4 6q1 2 3.5 6.5t6 17t4.5 25t-4 28t-18 27.5q-31 26 -72 22.5t-77.5 -15.5t-36.5 -14q-10 -3 -17.5 -4.5t-11.5 0t-6 3.5t-1.5 8t1 10t3 13.5t3.5 15.5q0 16 -2.5 30t-12 29.5t-25 23.5t-44 7.5t-66.5 -13.5t-77 -39t-69 -54
t-53.5 -54t-36.5 -43l-13 -17q-72 -96 -70 -182l1 -7q6 -53 31.5 -94.5t61 -67.5t84 -44t93 -26.5t94.5 -12.5q81 -6 168 13.5t162 66.5t106 113q19 39 19 73t-12 55.5t-31 38t-36 24t-30 9.5zM408 -31q-118 -6 -201 46t-83 131q0 78 82.5 134.5t201.5 61.5
q120 6 202.5 -39.5t82.5 -122.5q0 -80 -84 -143t-201 -68zM377 273q-32 -4 -57.5 -15t-39.5 -26t-24 -32.5t-13.5 -33.5t-5 -30t-1.5 -22l1 -8v-5q0 -3 2.5 -12.5t6 -18t12.5 -18.5t22 -17q71 -35 134 -21t101 64q15 18 20 45.5t-2.5 55.5t-24.5 51.5t-51.5 35.5t-79.5 7z
M337 64.5q-22 -2.5 -37.5 9t-15.5 29.5q0 19 14.5 35t35.5 19q25 2 40.5 -10t15.5 -31t-15.5 -34t-37.5 -17.5zM430.5 144.5q-7.5 -5.5 -15.5 -5t-12 7.5q-5 6 -3 15.5t9 14.5q9 6 17 5t12 -7.5t2 -15.5t-9.5 -14.5zM820 375q9 0 16.5 6t8.5 15v3q14 124 -84 143
q-30 6 -58 1q-10 0 -18 -7.5t-8 -18.5t8 -18.5t18 -7.5q86 19 93 -55q1 -19 -2 -36q0 -10 7.5 -17.5t18.5 -7.5zM801 678q-55 13 -129 -1q-1 0 -2 -1t-2 -1h-1q-12 -4 -19.5 -14t-7.5 -23q0 -15 11 -26.5t26 -11.5q21 3 34 8q6 1 19.5 2.5t36 -4.5t45 -14.5t46.5 -28.5
t40 -47q29 -65 12 -126q-8 -18 -8 -36q0 -15 11 -24.5t27 -9.5t24.5 6t11.5 26q20 61 15.5 110.5t-21.5 86.5t-46.5 63.5t-60 42.5t-62.5 23z" />
    <glyph glyph-name="uniE603" unicode="&#xe603;" 
d="M853 87q-92 31 -128 42l-129 43v43q4 3 9.5 10t20.5 31t26 51t20.5 71.5t9.5 92.5v47v37q0 78 -48.5 122.5t-121.5 48.5v1v0v-1q-73 -4 -121.5 -48.5t-48.5 -122.5v-37v-47q0 -48 9 -92t21.5 -72.5t25 -50.5t21.5 -31l9 -10v-43q-65 -23 -129 -43q-36 -11 -128 -42
q-24 -9 -41.5 -30t-25.5 -42.5t-13 -47.5t-5.5 -35.5t-0.5 -15.5v-43h427h427v43q0 6 -0.5 15.5t-5.5 35.5t-13 47.5t-25.5 42.5t-41.5 30z" />
    <glyph glyph-name="uniE604" unicode="&#xe604;" 
d="M831 89l-40 -40q6 -7 14.5 -19t27.5 -45.5t27.5 -63t3.5 -62t-33 -51.5q-74 -51 -248 23q-65 27 -71 36q1 -1 -22.5 -11.5t-61 -23.5t-80 -22.5t-85.5 -7t-70.5 21t-33.5 50t4.5 62t27 61t28 46.5t13.5 18l-40 40q-1 -2 -2.5 -4.5t-7.5 -9t-12.5 -12.5t-17 -11.5
t-22 -8.5t-27 -1.5t-31.5 7.5q-17 7 -28.5 25.5t-11.5 35.5q0 23 10 47t20 37l10 13q5 4 12.5 10.5t27 28t35 43.5t29.5 54t16 62q3 30 9.5 63.5t19.5 77.5t35 84.5t50.5 76.5t71.5 61t94 32h80q60 -8 109 -43t78.5 -80t50.5 -100.5t29.5 -98t11.5 -79.5q3 -31 16 -63
t30.5 -55.5t34 -43t28.5 -29.5l11 -10q5 -5 11 -13t17 -31t12 -43q1 -32 -10.5 -51t-29.5 -23q-26 -5 -46 -2t-34 9t-22.5 14t-12.5 14z" />
    <glyph glyph-name="uniE605" unicode="&#xe605;" 
d="M853 -84h-682q-36 0 -61 25t-25 60v512q0 36 25 61t61 25h145l68 85h256l68 -85h145q36 0 61 -25t25 -61v-512q0 -35 -25 -60t-61 -25zM512 471q-88 0 -150.5 -62.5t-62.5 -151t62.5 -151t150.5 -62.5t150.5 62.5t62.5 151t-62.5 151t-150.5 62.5zM512 129
q-53 0 -90.5 37.5t-37.5 90.5t37.5 90.5t90.5 37.5t90.5 -37.5t37.5 -90.5t-37.5 -90.5t-90.5 -37.5z" />
    <glyph glyph-name="uniE606" unicode="&#xe606;" horiz-adv-x="1496" 
d="M1116 376q0 25 -17 42t-41 17q-23 0 -39.5 -15t-19.5 -37q-4 -1 -7 -2l-153 -56q-32 -7 -45 5q-17 15 -13 55l38 137q51 1 87 37.5t36 87.5q0 52 -36.5 88.5t-88.5 36.5t-88.5 -36.5t-36.5 -88.5q0 -36 19 -66t51 -46l-38 -136v-4q0 -7 -2 -23t6 -42.5t26 -42.5
q25 -23 63 -23q18 0 37 4q2 1 4 1l154 57q4 2 9 5q5 -5 11 -7l-21 -498q-1 -8 4.5 -14t13.5 -6h1q8 0 13.5 5t6.5 13l21 495q20 5 32.5 21t12.5 36zM817.5 714q27.5 0 47 -19.5t19.5 -47t-19.5 -47t-47 -19.5t-47.5 19.5t-20 47t20 47t47.5 19.5zM1057.5 357q-8.5 0 -14 5.5
t-5.5 13.5t5.5 14t14 6t14 -6t5.5 -14t-5.5 -13.5t-14 -5.5zM847 137q-44 74 -67 96q-17 16 -44.5 17t-50.5 -17q-33 -28 -45 -139q-1 -2 -1.5 -5.5t-4 -13.5t-8 -18.5t-13 -18t-19.5 -14.5q-2 -1 -3 -2l-199 -135q-10 -7 -12 -19t5 -22t18.5 -12.5t21.5 4.5l197 135
q18 9 32.5 24t22 28.5t13 29t6.5 22t2 10.5q3 33 11 64t14 37q8 8 17 2q17 -16 57 -84q0 -1 1 -2q4 -6 11 -18t18.5 -47t12.5 -71l2 -114q0 -12 9 -20.5t21 -8.5t20.5 8.5t8.5 20.5l-2 116q-2 42 -14.5 82.5t-21.5 57t-16 27.5zM461 175l75 -20q10 -3 21 -3q27 0 48.5 16.5
t28.5 42.5l68 248q8 32 -8.5 61t-48.5 37l-74 21q-11 3 -21 3q-27 0 -48.5 -16.5t-29.5 -42.5l-67 -249q-9 -32 7.5 -60.5t48.5 -37.5zM529 506q4 16 21 16q3 0 5 -1l75 -20q9 -2 13 -10t2 -16l-16 -58l-116 32zM461 258l42 154l116 -33l-41 -153q-3 -8 -10.5 -12.5
t-16.5 -2.5l-75 21q-8 2 -12.5 9.5t-2.5 16.5z" />
    <glyph glyph-name="uniE607" unicode="&#xe607;" 
d="M886 -212h-732q-34 0 -53.5 19t-19.5 54v878q0 34 19.5 53.5t53.5 19.5h220v-366l73 -146l73 146v366h366q30 0 51.5 -22t21.5 -51v-878q0 -37 -17.5 -55t-55.5 -18zM438 -90q10 -7 17.5 -6t22.5 8t28.5 15t35 15.5t43.5 7.5h1l2 1q-6 0 -9 3l-103 102q-7 7 0 19
q-6 -8 -7 -16q-5 -25 -12 -48.5t-13 -37t-10.5 -26t-3.5 -21t8 -16.5zM496 95l-6 -5q-7 -6 -10 -10q13 11 22 2l103 -102q6 -6 0 -17l9 10l243 227q-11 -5 -17 1l-103 102q-6 7 0 18zM858.5 318.5q-20.5 21.5 -50 25t-54.5 -11.5q7 0 10 -3l103 -102q4 -4 3 -11q15 23 12 52
t-23.5 50.5z" />
    <glyph glyph-name="uniE608" unicode="&#xe608;" horiz-adv-x="1025" 
d="M440 398q24 0 40.5 16.5t16.5 40.5t-16.5 41t-40.5 17t-40.5 -17t-16.5 -41t16.5 -40.5t40.5 -16.5zM885 672h-56v85q0 26 -18 44.5t-44 18.5h-627q-25 0 -43.5 -18.5t-18.5 -44.5v-633q0 -25 18.5 -43.5t43.5 -18.5h84v-53q0 -12 5 -23v-1q7 -17 23 -28t35 -11h598
q26 0 44 18.5t18 44.5v600q0 26 -18 44.5t-44 18.5zM224 609v-444h-43v552h546v-45h-440q-26 0 -44.5 -18.5t-18.5 -44.5zM845 266l-166 167l-156 -158l-60 60l-137 -137v371h519v-303z" />
    <glyph glyph-name="uniE609" unicode="&#xe609;" horiz-adv-x="1026" 
d="M1 671h533v-41h-533v41zM1 486h533v-41h-533v41zM1 302h533v-41h-533v41zM738 646l287 -37q0 43 -10.5 78.5t-25 60.5t-43 47t-50.5 35t-63 27t-65 20.5t-71 18.5v-30v-215v-533h-126q-83 0 -121.5 -36t-38.5 -86q0 -20 8 -40.5t25.5 -40t51 -31.5t78.5 -12q35 0 62 7
t44 19.5t29.5 29.5t17.5 37t8.5 41.5t3 43.5t0.5 43q-1 17 -1 25v528z" />
    <glyph glyph-name="uniE60A" unicode="&#xe60a;" 
d="M0 44l512 512l512 -512h-256l-256 256l-256 -256h-256z" />
    <glyph glyph-name="uniE60B" unicode="&#xe60b;" 
d="M0 556l512 -512l512 512h-256l-256 -256l-256 256h-256z" />
    <glyph glyph-name="uniE60C" unicode="&#xe60c;" 
d="M583 384l374 -374q8 -7 8 -17.5t-8 -18.5l-35 -35q-8 -8 -18.5 -8t-17.5 8l-374 374l-374 -374q-7 -8 -17.5 -8t-18.5 8l-35 35q-8 8 -8 18.5t8 17.5l374 374l-374 374q-8 7 -8 17.5t8 18.5l35 35q8 8 18.5 8t17.5 -8l374 -374l374 374q7 8 17.5 8t18.5 -8l35 -35
q8 -8 8 -18.5t-8 -17.5z" />
    <glyph glyph-name="uniE60D" unicode="&#xe60d;" 
d="M116 54v660q0 47 25 85.5t62 57t83 16t84 -30.5l449 -329q32 -24 48.5 -58.5t16.5 -70.5t-16.5 -70.5t-48.5 -58.5l-449 -329q-38 -28 -84 -30.5t-83 16t-62 57t-25 85.5z" />
    <glyph glyph-name="uniE60E" unicode="&#xe60e;" 
d="M908 714v-660q0 -47 -25 -85.5t-62 -57t-83 -16t-84 30.5l-449 329q-42 32 -57.5 80.5t0 97t57.5 80.5l449 329q38 28 84 30.5t83 -16t62 -57t25 -85.5z" />
    <glyph glyph-name="uniE60F" unicode="&#xe60f;" 
d="M0 896q0 -139 37 -272t103 -245t160.5 -206.5t206.5 -160.5t245 -103t272 -37v1024h-1024v0zM608 469l127 -127q7 -7 7 -18t-7.5 -18.5t-18 -7.5t-17.5 8l-127 127l-127 -127q-7 -8 -17.5 -8t-18.5 8t-8 18.5t8 17.5l127 127l-127 127q-8 8 -7.5 18.5t8 18t18 7.5
t17.5 -7l127 -128l127 128q7 7 17.5 7t18 -7.5t7.5 -18t-7 -18.5l-127 -127v0z" />
    <glyph glyph-name="uniE610" unicode="&#xe610;" 
d="M870 896h-716q-64 0 -109 -45t-45 -109v-716q0 -64 45 -109t109 -45h716q64 0 109 45t45 109v716q0 64 -45 109t-109 45zM692 579l-293 -206v-2l293 -181v-52l-360 229v10l360 253v-51z" />
    <glyph glyph-name="uniE611" unicode="&#xe611;" 
d="M154 -128h716q64 0 109 45t45 109v716q0 64 -45 109t-109 45h-716q-64 0 -109 -45t-45 -109v-716q0 -64 45 -109t109 -45zM332 189l293 206v2l-293 181v52l360 -229v-10l-360 -253v51z" />
    <glyph glyph-name="uniE612" unicode="&#xe612;" 
d="M1009 881q18 -17 14.5 -45t-25.5 -50l-888 -888q-22 -22 -50 -25.5t-45 14.5q-18 17 -14.5 45t25.5 50l888 888q22 22 50 25.5t45 -14.5zM15 881q-18 -17 -14.5 -45t25.5 -50l888 -888q22 -22 50 -25.5t45 14.5q18 17 14.5 45t-25.5 50l-888 888q-22 22 -50 25.5
t-45 -14.5z" />
  </font>
</defs>
</svg>
